<svg width="1400" height="874" viewBox="0 0 1400 874" fill="none" xmlns="http://www.w3.org/2000/svg">
    <path d="M49.3369 747.788C49.6571 748.131 50.195 748.15 50.5383 747.83C50.8816 747.51 50.9004 746.972 50.5802 746.628C50.2601 746.285 49.7222 746.266 49.3789 746.586C49.0356 746.906 49.0168 747.444 49.3369 747.788Z"
          fill="url(#paint0_linear_165_1432)"/>
    <path d="M281.73 825.26C281.498 825.864 281.8 826.54 282.403 826.772C283.006 827.004 283.683 826.702 283.915 826.099C284.146 825.496 283.845 824.819 283.242 824.587C282.638 824.356 281.962 824.657 281.73 825.26Z"
          fill="url(#paint1_linear_165_1432)"/>
    <path d="M544.764 736.981C544.438 736.515 543.796 736.402 543.33 736.728C542.864 737.055 542.75 737.697 543.077 738.163C543.403 738.629 544.045 738.742 544.511 738.416C544.977 738.09 545.09 737.447 544.764 736.981Z"
          fill="url(#paint2_linear_165_1432)"/>
    <path d="M82.0263 861.084C81.7149 861.198 81.5544 861.542 81.6677 861.853C81.781 862.165 82.1253 862.325 82.4367 862.212C82.7481 862.099 82.9087 861.754 82.7953 861.443C82.682 861.131 82.3377 860.971 82.0263 861.084Z"
          fill="url(#paint3_linear_165_1432)"/>
    <path d="M228.371 696.912C228.906 696.893 229.325 696.444 229.307 695.908C229.288 695.373 228.839 694.954 228.303 694.973C227.768 694.991 227.349 695.441 227.368 695.976C227.386 696.511 227.836 696.93 228.371 696.912Z"
          fill="url(#paint4_linear_165_1432)"/>
    <path d="M574.484 573.11C574.707 573.272 575.02 573.222 575.182 572.999C575.345 572.776 575.295 572.463 575.072 572.301C574.848 572.138 574.536 572.188 574.373 572.411C574.211 572.635 574.261 572.947 574.484 573.11Z"
          fill="url(#paint5_linear_165_1432)"/>
    <path d="M101.815 786.904C101.551 786.823 101.271 786.972 101.19 787.236C101.11 787.5 101.258 787.78 101.522 787.86C101.786 787.941 102.066 787.793 102.147 787.529C102.227 787.264 102.079 786.985 101.815 786.904Z"
          fill="url(#paint6_linear_165_1432)"/>
    <path d="M192.895 817.12C193.129 817.266 193.437 817.195 193.584 816.961C193.73 816.726 193.659 816.418 193.425 816.272C193.19 816.125 192.882 816.196 192.736 816.431C192.589 816.665 192.66 816.973 192.895 817.12Z"
          fill="url(#paint7_linear_165_1432)"/>
    <path d="M366.096 871.228C366.266 871.011 366.228 870.696 366.01 870.526C365.793 870.357 365.478 870.395 365.308 870.613C365.138 870.83 365.177 871.145 365.395 871.315C365.612 871.484 365.926 871.446 366.096 871.228Z"
          fill="url(#paint8_linear_165_1432)"/>
    <path d="M409.048 861.89C408.807 861.756 408.502 861.843 408.368 862.085C408.234 862.326 408.322 862.63 408.563 862.764C408.805 862.898 409.109 862.811 409.243 862.569C409.377 862.328 409.29 862.023 409.048 861.89Z"
          fill="url(#paint9_linear_165_1432)"/>
    <path d="M510.245 836.798C510.558 836.61 510.659 836.205 510.471 835.893C510.283 835.58 509.878 835.479 509.566 835.667C509.254 835.855 509.153 836.26 509.34 836.572C509.528 836.884 509.933 836.985 510.245 836.798Z"
          fill="url(#paint10_linear_165_1432)"/>
    <path d="M39.1392 804.246C38.891 804.125 38.5916 804.228 38.4706 804.476C38.3495 804.724 38.4526 805.024 38.7008 805.145C38.949 805.266 39.2483 805.163 39.3694 804.914C39.4904 804.666 39.3874 804.367 39.1392 804.246Z"
          fill="url(#paint11_linear_165_1432)"/>
    <path d="M263.051 761.007C263.234 760.532 262.996 759.999 262.521 759.816C262.046 759.634 261.513 759.871 261.331 760.346C261.148 760.821 261.386 761.354 261.861 761.537C262.336 761.719 262.869 761.482 263.051 761.007Z"
          fill="url(#paint12_linear_165_1432)"/>
    <path d="M379.87 735.219C380.3 734.918 380.404 734.325 380.103 733.895C379.802 733.465 379.209 733.36 378.779 733.661C378.349 733.963 378.245 734.555 378.546 734.985C378.847 735.415 379.44 735.52 379.87 735.219Z"
          fill="url(#paint13_linear_165_1432)"/>
    <path d="M632.586 688.159C632.861 688.135 633.064 687.893 633.04 687.618C633.016 687.342 632.774 687.139 632.499 687.163C632.224 687.187 632.02 687.43 632.044 687.705C632.068 687.98 632.311 688.183 632.586 688.159Z"
          fill="url(#paint14_linear_165_1432)"/>
    <path d="M240.002 645.904C240.222 645.738 240.266 645.425 240.1 645.204C239.934 644.984 239.62 644.939 239.4 645.106C239.179 645.272 239.135 645.585 239.301 645.806C239.468 646.026 239.781 646.07 240.002 645.904Z"
          fill="url(#paint15_linear_165_1432)"/>
    <path d="M321.101 620.743C320.855 620.868 320.757 621.169 320.883 621.415C321.008 621.661 321.309 621.759 321.555 621.634C321.801 621.508 321.899 621.207 321.774 620.961C321.648 620.715 321.347 620.617 321.101 620.743Z"
          fill="url(#paint16_linear_165_1432)"/>
    <path d="M508.992 641.889C508.987 642.165 509.207 642.393 509.483 642.398C509.759 642.403 509.987 642.183 509.992 641.907C509.997 641.63 509.777 641.403 509.501 641.398C509.225 641.393 508.997 641.613 508.992 641.889Z"
          fill="url(#paint17_linear_165_1432)"/>
    <path d="M129.558 848.796C129.992 849.136 130.62 849.059 130.96 848.624C131.3 848.189 131.223 847.561 130.788 847.222C130.353 846.882 129.725 846.959 129.385 847.394C129.046 847.829 129.123 848.457 129.558 848.796Z"
          fill="url(#paint18_linear_165_1432)"/>
    <path d="M589.818 511.964C590.318 512.265 590.968 512.103 591.269 511.602C591.569 511.102 591.407 510.452 590.907 510.151C590.406 509.85 589.757 510.012 589.456 510.513C589.155 511.013 589.317 511.663 589.818 511.964Z"
          fill="url(#paint19_linear_165_1432)"/>
    <path d="M281.26 872.682C281.519 873.293 282.224 873.577 282.834 873.318C283.444 873.059 283.728 872.355 283.469 871.745C283.211 871.135 282.506 870.85 281.896 871.109C281.286 871.368 281.001 872.072 281.26 872.682Z"
          fill="url(#paint20_linear_165_1432)"/>
    <path d="M-6.30789 853.999C-6.50565 854.262 -6.45322 854.635 -6.19078 854.832C-5.92834 855.03 -5.55527 854.978 -5.35751 854.715C-5.15975 854.453 -5.21218 854.08 -5.47462 853.882C-5.73706 853.684 -6.11013 853.737 -6.30789 853.999Z"
          fill="url(#paint21_linear_165_1432)"/>
    <path d="M140.943 698.805C141.238 698.969 141.61 698.862 141.773 698.567C141.937 698.272 141.83 697.9 141.535 697.736C141.24 697.573 140.868 697.68 140.704 697.975C140.541 698.27 140.647 698.642 140.943 698.805Z"
          fill="url(#paint22_linear_165_1432)"/>
    <path d="M578.244 788.531C578.512 788.598 578.783 788.435 578.85 788.167C578.917 787.899 578.754 787.628 578.486 787.561C578.218 787.494 577.946 787.657 577.88 787.925C577.813 788.193 577.976 788.465 578.244 788.531Z"
          fill="url(#paint23_linear_165_1432)"/>
    <path d="M606.677 844.11C606.927 844.526 607.468 844.661 607.884 844.411C608.301 844.161 608.435 843.62 608.185 843.203C607.935 842.787 607.394 842.652 606.978 842.902C606.561 843.153 606.426 843.693 606.677 844.11Z"
          fill="url(#paint24_linear_165_1432)"/>
    <path d="M541.687 865.163C541.229 865.59 541.204 866.309 541.631 866.767C542.059 867.225 542.777 867.25 543.235 866.823C543.694 866.396 543.719 865.677 543.291 865.219C542.864 864.761 542.146 864.735 541.687 865.163Z"
          fill="url(#paint25_linear_165_1432)"/>
    <path d="M350.092 832.807C350.39 832.818 350.64 832.585 350.65 832.286C350.661 831.988 350.428 831.738 350.13 831.728C349.832 831.718 349.581 831.951 349.571 832.249C349.561 832.547 349.794 832.797 350.092 832.807Z"
          fill="url(#paint26_linear_165_1432)"/>
    <path d="M1038.58 825.26C1038.81 825.864 1038.51 826.54 1037.9 826.772C1037.3 827.004 1036.62 826.702 1036.39 826.099C1036.16 825.496 1036.46 824.819 1037.07 824.587C1037.67 824.356 1038.35 824.657 1038.58 825.26Z"
          fill="url(#paint27_linear_165_1432)"/>
    <path d="M775.544 736.981C775.87 736.515 776.512 736.402 776.978 736.728C777.444 737.055 777.557 737.697 777.231 738.163C776.905 738.629 776.263 738.742 775.797 738.416C775.331 738.09 775.217 737.447 775.544 736.981Z"
          fill="url(#paint28_linear_165_1432)"/>
    <path d="M1238.28 861.084C1238.59 861.198 1238.75 861.542 1238.64 861.853C1238.53 862.165 1238.18 862.325 1237.87 862.212C1237.56 862.099 1237.4 861.754 1237.51 861.443C1237.63 861.131 1237.97 860.971 1238.28 861.084Z"
          fill="url(#paint29_linear_165_1432)"/>
    <path d="M1081.94 686.912C1081.4 686.893 1080.98 686.444 1081 685.908C1081.02 685.373 1081.47 684.954 1082 684.973C1082.54 684.991 1082.96 685.441 1082.94 685.976C1082.92 686.511 1082.47 686.93 1081.94 686.912Z"
          fill="url(#paint30_linear_165_1432)"/>
    <path d="M745.824 573.11C745.6 573.272 745.288 573.222 745.125 572.999C744.963 572.776 745.013 572.463 745.236 572.301C745.459 572.138 745.772 572.188 745.934 572.411C746.097 572.635 746.047 572.947 745.824 573.11Z"
          fill="url(#paint31_linear_165_1432)"/>
    <path d="M1198.49 816.904C1198.76 816.823 1199.04 816.972 1199.12 817.236C1199.2 817.5 1199.05 817.78 1198.79 817.86C1198.52 817.941 1198.24 817.793 1198.16 817.529C1198.08 817.264 1198.23 816.985 1198.49 816.904Z"
          fill="url(#paint32_linear_165_1432)"/>
    <path d="M1127.41 817.12C1127.18 817.266 1126.87 817.195 1126.72 816.961C1126.58 816.726 1126.65 816.418 1126.88 816.272C1127.12 816.125 1127.43 816.196 1127.57 816.431C1127.72 816.665 1127.65 816.973 1127.41 817.12Z"
          fill="url(#paint33_linear_165_1432)"/>
    <path d="M944.211 861.228C944.041 861.011 944.08 860.696 944.298 860.526C944.515 860.357 944.829 860.395 944.999 860.613C945.169 860.83 945.131 861.145 944.913 861.315C944.696 861.484 944.381 861.446 944.211 861.228Z"
          fill="url(#paint34_linear_165_1432)"/>
    <path d="M891.26 861.89C891.501 861.756 891.806 861.843 891.939 862.085C892.073 862.326 891.986 862.63 891.745 862.764C891.503 862.898 891.199 862.811 891.065 862.569C890.931 862.328 891.018 862.023 891.26 861.89Z"
          fill="url(#paint35_linear_165_1432)"/>
    <path d="M810.062 836.798C809.75 836.61 809.649 836.205 809.837 835.893C810.024 835.58 810.43 835.479 810.742 835.667C811.054 835.855 811.155 836.26 810.968 836.572C810.78 836.884 810.375 836.985 810.062 836.798Z"
          fill="url(#paint36_linear_165_1432)"/>
    <path d="M1291.17 764.246C1291.42 764.125 1291.72 764.228 1291.84 764.476C1291.96 764.724 1291.86 765.024 1291.61 765.145C1291.36 765.266 1291.06 765.163 1290.94 764.914C1290.82 764.666 1290.92 764.367 1291.17 764.246Z"
          fill="url(#paint37_linear_165_1432)"/>
    <path d="M1195.31 662.628C1194.78 662.343 1194.57 661.68 1194.86 661.145C1195.14 660.611 1195.8 660.408 1196.34 660.692C1196.87 660.976 1197.08 661.64 1196.79 662.174C1196.51 662.709 1195.84 662.912 1195.31 662.628Z"
          fill="url(#paint38_linear_165_1432)"/>
    <path d="M1057.26 761.007C1057.07 760.532 1057.31 759.999 1057.79 759.816C1058.26 759.634 1058.79 759.871 1058.98 760.346C1059.16 760.821 1058.92 761.354 1058.45 761.537C1057.97 761.719 1057.44 761.482 1057.26 761.007Z"
          fill="url(#paint39_linear_165_1432)"/>
    <path d="M940.438 735.219C940.008 734.918 939.904 734.325 940.205 733.895C940.506 733.465 941.099 733.36 941.529 733.661C941.959 733.963 942.063 734.555 941.762 734.985C941.461 735.415 940.868 735.52 940.438 735.219Z"
          fill="url(#paint40_linear_165_1432)"/>
    <path d="M687.722 688.159C687.447 688.135 687.243 687.893 687.267 687.618C687.292 687.342 687.534 687.139 687.809 687.163C688.084 687.187 688.288 687.43 688.264 687.705C688.24 687.98 687.997 688.183 687.722 688.159Z"
          fill="url(#paint41_linear_165_1432)"/>
    <path d="M1247.22 587.292C1247.46 587.15 1247.76 587.226 1247.91 587.463C1248.05 587.7 1247.97 588.007 1247.74 588.149C1247.5 588.291 1247.19 588.215 1247.05 587.978C1246.91 587.741 1246.98 587.434 1247.22 587.292Z"
          fill="url(#paint42_linear_165_1432)"/>
    <path d="M1080.31 865.904C1080.09 865.738 1080.04 865.425 1080.21 865.204C1080.37 864.984 1080.69 864.939 1080.91 865.106C1081.13 865.272 1081.17 865.585 1081.01 865.806C1080.84 866.026 1080.53 866.07 1080.31 865.904Z"
          fill="url(#paint43_linear_165_1432)"/>
    <path d="M999.207 620.743C999.453 620.868 999.551 621.169 999.425 621.415C999.3 621.661 998.999 621.759 998.753 621.634C998.507 621.508 998.409 621.207 998.534 620.961C998.66 620.715 998.961 620.617 999.207 620.743Z"
          fill="url(#paint44_linear_165_1432)"/>
    <path d="M811.316 641.889C811.321 642.165 811.101 642.393 810.825 642.398C810.548 642.403 810.321 642.183 810.316 641.907C810.311 641.63 810.531 641.403 810.807 641.398C811.083 641.393 811.311 641.613 811.316 641.889Z"
          fill="url(#paint45_linear_165_1432)"/>
    <path d="M1150.75 868.796C1150.32 869.136 1149.69 869.059 1149.35 868.624C1149.01 868.189 1149.09 867.561 1149.52 867.222C1149.95 866.882 1150.58 866.959 1150.92 867.394C1151.26 867.829 1151.18 868.457 1150.75 868.796Z"
          fill="url(#paint46_linear_165_1432)"/>
    <path d="M730.49 511.964C729.99 512.265 729.34 512.103 729.039 511.602C728.739 511.102 728.9 510.452 729.401 510.151C729.901 509.85 730.551 510.012 730.852 510.513C731.153 511.013 730.991 511.663 730.49 511.964Z"
          fill="url(#paint47_linear_165_1432)"/>
    <path d="M1326.62 853.999C1326.81 854.262 1326.76 854.635 1326.5 854.832C1326.24 855.03 1325.86 854.978 1325.67 854.715C1325.47 854.453 1325.52 854.08 1325.78 853.882C1326.04 853.684 1326.42 853.737 1326.62 853.999Z"
          fill="url(#paint48_linear_165_1432)"/>
    <path d="M1159.37 758.805C1159.07 758.969 1158.7 758.862 1158.53 758.567C1158.37 758.272 1158.48 757.9 1158.77 757.736C1159.07 757.573 1159.44 757.68 1159.6 757.975C1159.77 758.27 1159.66 758.642 1159.37 758.805Z"
          fill="url(#paint49_linear_165_1432)"/>
    <path d="M742.064 788.531C741.796 788.598 741.525 788.435 741.458 788.167C741.391 787.899 741.554 787.628 741.822 787.561C742.09 787.494 742.361 787.657 742.428 787.925C742.495 788.193 742.332 788.465 742.064 788.531Z"
          fill="url(#paint50_linear_165_1432)"/>
    <path d="M685.549 799.049C685.53 798.774 685.738 798.535 686.013 798.516C686.289 798.496 686.528 798.704 686.547 798.98C686.566 799.255 686.359 799.494 686.083 799.513C685.808 799.533 685.569 799.325 685.549 799.049Z"
          fill="url(#paint51_linear_165_1432)"/>
    <path d="M713.631 844.11C713.381 844.526 712.84 844.661 712.424 844.411C712.007 844.161 711.872 843.62 712.123 843.203C712.373 842.787 712.914 842.652 713.33 842.902C713.747 843.153 713.882 843.693 713.631 844.11Z"
          fill="url(#paint52_linear_165_1432)"/>
    <path d="M778.62 865.163C779.079 865.59 779.104 866.309 778.677 866.767C778.249 867.225 777.531 867.25 777.072 866.823C776.614 866.396 776.589 865.677 777.016 865.219C777.444 864.761 778.162 864.735 778.62 865.163Z"
          fill="url(#paint53_linear_165_1432)"/>
    <path d="M910.216 792.807C909.918 792.818 909.668 792.585 909.657 792.286C909.647 791.988 909.88 791.738 910.178 791.728C910.476 791.718 910.726 791.951 910.737 792.249C910.747 792.547 910.514 792.797 910.216 792.807Z"
          fill="url(#paint54_linear_165_1432)"/>
    <path d="M199.251 871.739C199.455 871.496 199.424 871.133 199.18 870.929C198.937 870.725 198.574 870.756 198.37 871C198.166 871.243 198.198 871.606 198.441 871.81C198.684 872.014 199.047 871.982 199.251 871.739Z"
          fill="url(#paint55_linear_165_1432)"/>
    <path d="M1310.82 663.945C1310.62 663.702 1310.65 663.339 1310.9 663.135C1311.14 662.931 1311.5 662.962 1311.71 663.206C1311.91 663.449 1311.88 663.812 1311.64 664.016C1311.39 664.22 1311.03 664.188 1310.82 663.945Z"
          fill="url(#paint56_linear_165_1432)"/>
    <path d="M871.198 722.175C871.533 722.654 871.417 723.313 870.938 723.648C870.46 723.983 869.801 723.867 869.466 723.388C869.131 722.91 869.247 722.251 869.725 721.916C870.204 721.581 870.863 721.697 871.198 722.175Z"
          fill="url(#paint57_linear_165_1432)"/>
    <path d="M434.896 800.454C434.916 800.178 434.708 799.939 434.432 799.92C434.157 799.901 433.918 800.109 433.899 800.384C433.879 800.659 434.087 800.898 434.363 800.918C434.638 800.937 434.877 800.729 434.896 800.454Z"
          fill="url(#paint58_linear_165_1432)"/>
    <path d="M442.192 749.336C441.857 749.814 441.973 750.474 442.452 750.809C442.93 751.143 443.589 751.027 443.924 750.549C444.259 750.071 444.143 749.411 443.664 749.076C443.186 748.741 442.527 748.858 442.192 749.336Z"
          fill="url(#paint59_linear_165_1432)"/>
    <path d="M986.007 815.585C985.963 815.312 986.15 815.056 986.422 815.013C986.695 814.969 986.951 815.156 986.994 815.428C987.038 815.701 986.851 815.957 986.579 816C986.306 816.044 986.05 815.857 986.007 815.585Z"
          fill="url(#paint60_linear_165_1432)"/>
    <path d="M841.61 771.104C841.784 770.89 842.099 770.857 842.313 771.03C842.528 771.204 842.561 771.519 842.387 771.734C842.213 771.948 841.899 771.981 841.684 771.807C841.469 771.634 841.436 771.319 841.61 771.104Z"
          fill="url(#paint61_linear_165_1432)"/>
    <path d="M1399.46 706.822C1399.29 706.608 1398.97 706.575 1398.76 706.748C1398.54 706.922 1398.51 707.237 1398.68 707.452C1398.86 707.666 1399.17 707.699 1399.39 707.526C1399.6 707.352 1399.63 707.037 1399.46 706.822Z"
          fill="url(#paint62_linear_165_1432)"/>
    <path d="M49.3369 237.788C49.6571 238.131 50.195 238.15 50.5383 237.83C50.8816 237.509 50.9004 236.972 50.5802 236.628C50.2601 236.285 49.7222 236.266 49.3789 236.586C49.0356 236.906 49.0168 237.444 49.3369 237.788Z"
          fill="url(#paint63_linear_165_1432)"/>
    <path d="M281.73 315.26C281.498 315.864 281.8 316.54 282.403 316.772C283.006 317.003 283.683 316.702 283.915 316.099C284.146 315.496 283.845 314.819 283.242 314.587C282.638 314.356 281.962 314.657 281.73 315.26Z"
          fill="url(#paint64_linear_165_1432)"/>
    <path d="M544.764 226.981C544.438 226.515 543.796 226.402 543.33 226.728C542.864 227.055 542.75 227.697 543.077 228.163C543.403 228.629 544.045 228.742 544.511 228.416C544.977 228.09 545.09 227.447 544.764 226.981Z"
          fill="url(#paint65_linear_165_1432)"/>
    <path d="M82.0263 351.084C81.7149 351.198 81.5544 351.542 81.6677 351.853C81.781 352.165 82.1253 352.325 82.4367 352.212C82.7481 352.099 82.9087 351.754 82.7953 351.443C82.682 351.131 82.3377 350.971 82.0263 351.084Z"
          fill="url(#paint66_linear_165_1432)"/>
    <path d="M228.371 186.912C228.906 186.893 229.325 186.444 229.307 185.908C229.288 185.373 228.839 184.954 228.303 184.973C227.768 184.991 227.349 185.441 227.368 185.976C227.386 186.511 227.836 186.93 228.371 186.912Z"
          fill="url(#paint67_linear_165_1432)"/>
    <path d="M574.484 63.1096C574.707 63.2719 575.02 63.2224 575.182 62.999C575.345 62.7756 575.295 62.4629 575.072 62.3006C574.848 62.1383 574.536 62.1878 574.373 62.4112C574.211 62.6346 574.261 62.9472 574.484 63.1096Z"
          fill="url(#paint68_linear_165_1432)"/>
    <path d="M101.815 276.904C101.551 276.823 101.271 276.972 101.19 277.236C101.11 277.5 101.258 277.78 101.522 277.86C101.786 277.941 102.066 277.793 102.147 277.528C102.227 277.264 102.079 276.985 101.815 276.904Z"
          fill="url(#paint69_linear_165_1432)"/>
    <path d="M192.895 307.12C193.129 307.266 193.437 307.195 193.584 306.961C193.73 306.726 193.659 306.418 193.425 306.272C193.19 306.125 192.882 306.196 192.736 306.431C192.589 306.665 192.66 306.973 192.895 307.12Z"
          fill="url(#paint70_linear_165_1432)"/>
    <path d="M366.096 361.228C366.266 361.011 366.228 360.696 366.01 360.526C365.793 360.356 365.478 360.395 365.308 360.613C365.138 360.83 365.177 361.144 365.395 361.314C365.612 361.484 365.926 361.446 366.096 361.228Z"
          fill="url(#paint71_linear_165_1432)"/>
    <path d="M409.048 351.89C408.807 351.756 408.502 351.843 408.368 352.085C408.234 352.326 408.322 352.63 408.563 352.764C408.805 352.898 409.109 352.811 409.243 352.569C409.377 352.328 409.29 352.023 409.048 351.89Z"
          fill="url(#paint72_linear_165_1432)"/>
    <path d="M510.245 326.798C510.558 326.61 510.659 326.205 510.471 325.893C510.283 325.58 509.878 325.479 509.566 325.667C509.254 325.855 509.153 326.26 509.34 326.572C509.528 326.884 509.933 326.985 510.245 326.798Z"
          fill="url(#paint73_linear_165_1432)"/>
    <path d="M39.1392 294.246C38.891 294.125 38.5916 294.228 38.4706 294.476C38.3495 294.724 38.4526 295.024 38.7008 295.145C38.949 295.266 39.2483 295.163 39.3694 294.914C39.4904 294.666 39.3874 294.367 39.1392 294.246Z"
          fill="url(#paint74_linear_165_1432)"/>
    <path d="M263.051 251.007C263.234 250.532 262.996 249.999 262.521 249.816C262.046 249.634 261.513 249.871 261.331 250.346C261.148 250.821 261.386 251.354 261.861 251.537C262.336 251.719 262.869 251.482 263.051 251.007Z"
          fill="url(#paint75_linear_165_1432)"/>
    <path d="M379.87 225.219C380.3 224.918 380.404 224.325 380.103 223.895C379.802 223.465 379.209 223.36 378.779 223.661C378.349 223.962 378.245 224.555 378.546 224.985C378.847 225.415 379.44 225.52 379.87 225.219Z"
          fill="url(#paint76_linear_165_1432)"/>
    <path d="M632.586 178.159C632.861 178.135 633.064 177.893 633.04 177.618C633.016 177.342 632.774 177.139 632.499 177.163C632.224 177.187 632.02 177.43 632.044 177.705C632.068 177.98 632.311 178.183 632.586 178.159Z"
          fill="url(#paint77_linear_165_1432)"/>
    <path d="M240.002 135.904C240.222 135.738 240.266 135.425 240.1 135.204C239.934 134.984 239.62 134.939 239.4 135.106C239.179 135.272 239.135 135.585 239.301 135.806C239.468 136.026 239.781 136.07 240.002 135.904Z"
          fill="url(#paint78_linear_165_1432)"/>
    <path d="M321.101 110.743C320.855 110.868 320.757 111.169 320.883 111.415C321.008 111.661 321.309 111.759 321.555 111.634C321.801 111.508 321.899 111.207 321.774 110.961C321.648 110.715 321.347 110.617 321.101 110.743Z"
          fill="url(#paint79_linear_165_1432)"/>
    <path d="M508.992 131.889C508.987 132.165 509.207 132.393 509.483 132.398C509.759 132.403 509.987 132.183 509.992 131.907C509.997 131.63 509.777 131.403 509.501 131.398C509.225 131.393 508.997 131.613 508.992 131.889Z"
          fill="url(#paint80_linear_165_1432)"/>
    <path d="M129.558 338.796C129.992 339.136 130.62 339.059 130.96 338.624C131.3 338.189 131.223 337.561 130.788 337.222C130.353 336.882 129.725 336.959 129.385 337.394C129.046 337.829 129.123 338.457 129.558 338.796Z"
          fill="url(#paint81_linear_165_1432)"/>
    <path d="M589.818 1.96374C590.318 2.26449 590.968 2.10254 591.269 1.60201C591.569 1.10149 591.407 0.451925 590.907 0.151178C590.406 -0.149568 589.757 0.012377 589.456 0.512903C589.155 1.01343 589.317 1.66299 589.818 1.96374Z"
          fill="url(#paint82_linear_165_1432)"/>
    <path d="M281.26 362.682C281.519 363.293 282.224 363.577 282.834 363.318C283.444 363.059 283.728 362.355 283.469 361.745C283.211 361.135 282.506 360.85 281.896 361.109C281.286 361.368 281.001 362.072 281.26 362.682Z"
          fill="url(#paint83_linear_165_1432)"/>
    <path d="M-6.30789 343.999C-6.50565 344.262 -6.45322 344.635 -6.19078 344.832C-5.92834 345.03 -5.55527 344.978 -5.35751 344.715C-5.15975 344.453 -5.21218 344.08 -5.47462 343.882C-5.73706 343.684 -6.11013 343.737 -6.30789 343.999Z"
          fill="url(#paint84_linear_165_1432)"/>
    <path d="M140.943 188.805C141.238 188.969 141.61 188.862 141.773 188.567C141.937 188.272 141.83 187.9 141.535 187.736C141.24 187.573 140.868 187.679 140.704 187.975C140.541 188.27 140.647 188.642 140.943 188.805Z"
          fill="url(#paint85_linear_165_1432)"/>
    <path d="M578.244 278.531C578.512 278.598 578.783 278.435 578.85 278.167C578.917 277.899 578.754 277.628 578.486 277.561C578.218 277.494 577.946 277.657 577.88 277.925C577.813 278.193 577.976 278.465 578.244 278.531Z"
          fill="url(#paint86_linear_165_1432)"/>
    <path d="M606.677 334.11C606.927 334.526 607.468 334.661 607.884 334.411C608.301 334.161 608.435 333.62 608.185 333.203C607.935 332.787 607.394 332.652 606.978 332.902C606.561 333.153 606.426 333.693 606.677 334.11Z"
          fill="url(#paint87_linear_165_1432)"/>
    <path d="M541.687 355.163C541.229 355.59 541.204 356.309 541.631 356.767C542.059 357.225 542.777 357.25 543.235 356.823C543.694 356.396 543.719 355.677 543.291 355.219C542.864 354.761 542.146 354.735 541.687 355.163Z"
          fill="url(#paint88_linear_165_1432)"/>
    <path d="M350.092 322.807C350.39 322.818 350.64 322.585 350.65 322.286C350.661 321.988 350.428 321.738 350.13 321.728C349.832 321.718 349.581 321.951 349.571 322.249C349.561 322.547 349.794 322.797 350.092 322.807Z"
          fill="url(#paint89_linear_165_1432)"/>
    <path d="M1038.58 315.26C1038.81 315.864 1038.51 316.54 1037.9 316.772C1037.3 317.003 1036.62 316.702 1036.39 316.099C1036.16 315.496 1036.46 314.819 1037.07 314.587C1037.67 314.356 1038.35 314.657 1038.58 315.26Z"
          fill="url(#paint90_linear_165_1432)"/>
    <path d="M775.544 226.981C775.87 226.515 776.512 226.402 776.978 226.728C777.444 227.055 777.557 227.697 777.231 228.163C776.905 228.629 776.263 228.742 775.797 228.416C775.331 228.09 775.217 227.447 775.544 226.981Z"
          fill="url(#paint91_linear_165_1432)"/>
    <path d="M1238.28 351.084C1238.59 351.198 1238.75 351.542 1238.64 351.853C1238.53 352.165 1238.18 352.325 1237.87 352.212C1237.56 352.099 1237.4 351.754 1237.51 351.443C1237.63 351.131 1237.97 350.971 1238.28 351.084Z"
          fill="url(#paint92_linear_165_1432)"/>
    <path d="M1081.94 176.912C1081.4 176.893 1080.98 176.444 1081 175.908C1081.02 175.373 1081.47 174.954 1082 174.973C1082.54 174.991 1082.96 175.441 1082.94 175.976C1082.92 176.511 1082.47 176.93 1081.94 176.912Z"
          fill="url(#paint93_linear_165_1432)"/>
    <path d="M745.824 63.1096C745.6 63.2719 745.288 63.2224 745.125 62.999C744.963 62.7756 745.013 62.4629 745.236 62.3006C745.459 62.1383 745.772 62.1878 745.934 62.4112C746.097 62.6346 746.047 62.9472 745.824 63.1096Z"
          fill="url(#paint94_linear_165_1432)"/>
    <path d="M1198.49 306.904C1198.76 306.823 1199.04 306.972 1199.12 307.236C1199.2 307.5 1199.05 307.78 1198.79 307.86C1198.52 307.941 1198.24 307.793 1198.16 307.528C1198.08 307.264 1198.23 306.985 1198.49 306.904Z"
          fill="url(#paint95_linear_165_1432)"/>
    <path d="M1127.41 307.12C1127.18 307.266 1126.87 307.195 1126.72 306.961C1126.58 306.726 1126.65 306.418 1126.88 306.272C1127.12 306.125 1127.43 306.196 1127.57 306.431C1127.72 306.665 1127.65 306.973 1127.41 307.12Z"
          fill="url(#paint96_linear_165_1432)"/>
    <path d="M944.211 351.228C944.041 351.011 944.08 350.696 944.298 350.526C944.515 350.356 944.829 350.395 944.999 350.613C945.169 350.83 945.131 351.144 944.913 351.314C944.696 351.484 944.381 351.446 944.211 351.228Z"
          fill="url(#paint97_linear_165_1432)"/>
    <path d="M891.26 351.89C891.501 351.756 891.806 351.843 891.939 352.085C892.073 352.326 891.986 352.63 891.745 352.764C891.503 352.898 891.199 352.811 891.065 352.569C890.931 352.328 891.018 352.023 891.26 351.89Z"
          fill="url(#paint98_linear_165_1432)"/>
    <path d="M810.062 326.798C809.75 326.61 809.649 326.205 809.837 325.893C810.024 325.58 810.43 325.479 810.742 325.667C811.054 325.855 811.155 326.26 810.968 326.572C810.78 326.884 810.375 326.985 810.062 326.798Z"
          fill="url(#paint99_linear_165_1432)"/>
    <path d="M1291.17 254.246C1291.42 254.125 1291.72 254.228 1291.84 254.476C1291.96 254.724 1291.86 255.024 1291.61 255.145C1291.36 255.266 1291.06 255.163 1290.94 254.914C1290.82 254.666 1290.92 254.367 1291.17 254.246Z"
          fill="url(#paint100_linear_165_1432)"/>
    <path d="M1195.31 152.628C1194.78 152.343 1194.57 151.68 1194.86 151.145C1195.14 150.611 1195.8 150.408 1196.34 150.692C1196.87 150.976 1197.08 151.64 1196.79 152.174C1196.51 152.709 1195.84 152.912 1195.31 152.628Z"
          fill="url(#paint101_linear_165_1432)"/>
    <path d="M1057.26 251.007C1057.07 250.532 1057.31 249.999 1057.79 249.816C1058.26 249.634 1058.79 249.871 1058.98 250.346C1059.16 250.821 1058.92 251.354 1058.45 251.537C1057.97 251.719 1057.44 251.482 1057.26 251.007Z"
          fill="url(#paint102_linear_165_1432)"/>
    <path d="M940.438 225.219C940.008 224.918 939.904 224.325 940.205 223.895C940.506 223.465 941.099 223.36 941.529 223.661C941.959 223.962 942.063 224.555 941.762 224.985C941.461 225.415 940.868 225.52 940.438 225.219Z"
          fill="url(#paint103_linear_165_1432)"/>
    <path d="M687.722 178.159C687.447 178.135 687.243 177.893 687.267 177.618C687.292 177.342 687.534 177.139 687.809 177.163C688.084 177.187 688.288 177.43 688.264 177.705C688.24 177.98 687.997 178.183 687.722 178.159Z"
          fill="url(#paint104_linear_165_1432)"/>
    <path d="M1247.22 77.292C1247.46 77.1498 1247.76 77.2264 1247.91 77.4631C1248.05 77.6998 1247.97 78.0069 1247.74 78.1492C1247.5 78.2914 1247.19 78.2148 1247.05 77.9781C1246.91 77.7414 1246.98 77.4342 1247.22 77.292Z"
          fill="url(#paint105_linear_165_1432)"/>
    <path d="M1080.31 355.904C1080.09 355.738 1080.04 355.425 1080.21 355.204C1080.37 354.983 1080.69 354.939 1080.91 355.106C1081.13 355.272 1081.17 355.585 1081.01 355.806C1080.84 356.026 1080.53 356.07 1080.31 355.904Z"
          fill="url(#paint106_linear_165_1432)"/>
    <path d="M999.207 110.743C999.453 110.868 999.551 111.169 999.425 111.415C999.3 111.661 998.999 111.759 998.753 111.634C998.507 111.508 998.409 111.207 998.534 110.961C998.66 110.715 998.961 110.617 999.207 110.743Z"
          fill="url(#paint107_linear_165_1432)"/>
    <path d="M811.316 131.889C811.321 132.165 811.101 132.393 810.825 132.398C810.548 132.403 810.321 132.183 810.316 131.907C810.311 131.63 810.531 131.403 810.807 131.398C811.083 131.393 811.311 131.613 811.316 131.889Z"
          fill="url(#paint108_linear_165_1432)"/>
    <path d="M1150.75 358.796C1150.32 359.136 1149.69 359.059 1149.35 358.624C1149.01 358.189 1149.09 357.561 1149.52 357.222C1149.95 356.882 1150.58 356.959 1150.92 357.394C1151.26 357.829 1151.18 358.457 1150.75 358.796Z"
          fill="url(#paint109_linear_165_1432)"/>
    <path d="M730.49 1.96374C729.99 2.26449 729.34 2.10254 729.039 1.60201C728.739 1.10149 728.9 0.451925 729.401 0.151178C729.901 -0.149568 730.551 0.012377 730.852 0.512903C731.153 1.01343 730.991 1.66299 730.49 1.96374Z"
          fill="url(#paint110_linear_165_1432)"/>
    <path d="M1326.62 343.999C1326.81 344.262 1326.76 344.635 1326.5 344.832C1326.24 345.03 1325.86 344.978 1325.67 344.715C1325.47 344.453 1325.52 344.08 1325.78 343.882C1326.04 343.684 1326.42 343.737 1326.62 343.999Z"
          fill="url(#paint111_linear_165_1432)"/>
    <path d="M1159.37 248.805C1159.07 248.969 1158.7 248.862 1158.53 248.567C1158.37 248.272 1158.48 247.9 1158.77 247.736C1159.07 247.573 1159.44 247.679 1159.6 247.975C1159.77 248.27 1159.66 248.642 1159.37 248.805Z"
          fill="url(#paint112_linear_165_1432)"/>
    <path d="M742.064 278.531C741.796 278.598 741.525 278.435 741.458 278.167C741.391 277.899 741.554 277.628 741.822 277.561C742.09 277.494 742.361 277.657 742.428 277.925C742.495 278.193 742.332 278.465 742.064 278.531Z"
          fill="url(#paint113_linear_165_1432)"/>
    <path d="M685.549 289.049C685.53 288.774 685.738 288.535 686.013 288.516C686.289 288.496 686.528 288.704 686.547 288.98C686.566 289.255 686.359 289.494 686.083 289.513C685.808 289.533 685.569 289.325 685.549 289.049Z"
          fill="url(#paint114_linear_165_1432)"/>
    <path d="M713.631 334.11C713.381 334.526 712.84 334.661 712.424 334.411C712.007 334.161 711.872 333.62 712.123 333.203C712.373 332.787 712.914 332.652 713.33 332.902C713.747 333.153 713.882 333.693 713.631 334.11Z"
          fill="url(#paint115_linear_165_1432)"/>
    <path d="M778.62 355.163C779.079 355.59 779.104 356.309 778.677 356.767C778.249 357.225 777.531 357.25 777.072 356.823C776.614 356.396 776.589 355.677 777.016 355.219C777.444 354.761 778.162 354.735 778.62 355.163Z"
          fill="url(#paint116_linear_165_1432)"/>
    <path d="M910.216 282.807C909.918 282.818 909.668 282.585 909.657 282.286C909.647 281.988 909.88 281.738 910.178 281.728C910.476 281.718 910.726 281.951 910.737 282.249C910.747 282.547 910.514 282.797 910.216 282.807Z"
          fill="url(#paint117_linear_165_1432)"/>
    <path d="M199.251 361.739C199.455 361.496 199.424 361.133 199.18 360.929C198.937 360.725 198.574 360.756 198.37 361C198.166 361.243 198.198 361.606 198.441 361.81C198.684 362.014 199.047 361.982 199.251 361.739Z"
          fill="url(#paint118_linear_165_1432)"/>
    <path d="M1310.82 153.945C1310.62 153.702 1310.65 153.339 1310.9 153.135C1311.14 152.931 1311.5 152.962 1311.71 153.206C1311.91 153.449 1311.88 153.812 1311.64 154.016C1311.39 154.22 1311.03 154.188 1310.82 153.945Z"
          fill="url(#paint119_linear_165_1432)"/>
    <path d="M871.198 212.175C871.533 212.654 871.417 213.313 870.938 213.648C870.46 213.983 869.801 213.867 869.466 213.388C869.131 212.91 869.247 212.251 869.725 211.916C870.204 211.581 870.863 211.697 871.198 212.175Z"
          fill="url(#paint120_linear_165_1432)"/>
    <path d="M434.896 290.454C434.916 290.178 434.708 289.939 434.432 289.92C434.157 289.901 433.918 290.108 433.899 290.384C433.879 290.659 434.087 290.898 434.363 290.918C434.638 290.937 434.877 290.729 434.896 290.454Z"
          fill="url(#paint121_linear_165_1432)"/>
    <path d="M442.192 239.336C441.857 239.814 441.973 240.474 442.452 240.809C442.93 241.143 443.589 241.027 443.924 240.549C444.259 240.071 444.143 239.411 443.664 239.076C443.186 238.741 442.527 238.858 442.192 239.336Z"
          fill="url(#paint122_linear_165_1432)"/>
    <path d="M986.007 305.585C985.963 305.312 986.15 305.056 986.422 305.013C986.695 304.969 986.951 305.155 986.994 305.428C987.038 305.701 986.851 305.957 986.579 306C986.306 306.043 986.05 305.857 986.007 305.585Z"
          fill="url(#paint123_linear_165_1432)"/>
    <path d="M841.61 261.104C841.784 260.89 842.099 260.857 842.313 261.03C842.528 261.204 842.561 261.519 842.387 261.734C842.213 261.948 841.899 261.981 841.684 261.807C841.469 261.634 841.436 261.319 841.61 261.104Z"
          fill="url(#paint124_linear_165_1432)"/>
    <path d="M1399.46 196.822C1399.29 196.608 1398.97 196.575 1398.76 196.748C1398.54 196.922 1398.51 197.237 1398.68 197.452C1398.86 197.666 1399.17 197.699 1399.39 197.526C1399.6 197.352 1399.63 197.037 1399.46 196.822Z"
          fill="url(#paint125_linear_165_1432)"/>
    <defs>
        <linearGradient id="paint0_linear_165_1432" x1="696.571" y1="29.5" x2="696.571" y2="894"
                        gradientUnits="userSpaceOnUse">
            <stop stop-color="white" stop-opacity="0"/>
            <stop offset="1" stop-color="white"/>
        </linearGradient>
        <linearGradient id="paint1_linear_165_1432" x1="696.571" y1="29.5" x2="696.571" y2="894"
                        gradientUnits="userSpaceOnUse">
            <stop stop-color="white" stop-opacity="0"/>
            <stop offset="1" stop-color="white"/>
        </linearGradient>
        <linearGradient id="paint2_linear_165_1432" x1="696.571" y1="29.5" x2="696.571" y2="894"
                        gradientUnits="userSpaceOnUse">
            <stop stop-color="white" stop-opacity="0"/>
            <stop offset="1" stop-color="white"/>
        </linearGradient>
        <linearGradient id="paint3_linear_165_1432" x1="696.571" y1="29.5" x2="696.571" y2="894"
                        gradientUnits="userSpaceOnUse">
            <stop stop-color="white" stop-opacity="0"/>
            <stop offset="1" stop-color="white"/>
        </linearGradient>
        <linearGradient id="paint4_linear_165_1432" x1="696.571" y1="29.5" x2="696.571" y2="894"
                        gradientUnits="userSpaceOnUse">
            <stop stop-color="white" stop-opacity="0"/>
            <stop offset="1" stop-color="white"/>
        </linearGradient>
        <linearGradient id="paint5_linear_165_1432" x1="696.571" y1="29.5" x2="696.571" y2="894"
                        gradientUnits="userSpaceOnUse">
            <stop stop-color="white" stop-opacity="0"/>
            <stop offset="1" stop-color="white"/>
        </linearGradient>
        <linearGradient id="paint6_linear_165_1432" x1="696.571" y1="29.5" x2="696.571" y2="894"
                        gradientUnits="userSpaceOnUse">
            <stop stop-color="white" stop-opacity="0"/>
            <stop offset="1" stop-color="white"/>
        </linearGradient>
        <linearGradient id="paint7_linear_165_1432" x1="696.571" y1="29.5" x2="696.571" y2="894"
                        gradientUnits="userSpaceOnUse">
            <stop stop-color="white" stop-opacity="0"/>
            <stop offset="1" stop-color="white"/>
        </linearGradient>
        <linearGradient id="paint8_linear_165_1432" x1="696.571" y1="29.5" x2="696.571" y2="894"
                        gradientUnits="userSpaceOnUse">
            <stop stop-color="white" stop-opacity="0"/>
            <stop offset="1" stop-color="white"/>
        </linearGradient>
        <linearGradient id="paint9_linear_165_1432" x1="696.571" y1="29.5" x2="696.571" y2="894"
                        gradientUnits="userSpaceOnUse">
            <stop stop-color="white" stop-opacity="0"/>
            <stop offset="1" stop-color="white"/>
        </linearGradient>
        <linearGradient id="paint10_linear_165_1432" x1="696.571" y1="29.5" x2="696.571" y2="894"
                        gradientUnits="userSpaceOnUse">
            <stop stop-color="white" stop-opacity="0"/>
            <stop offset="1" stop-color="white"/>
        </linearGradient>
        <linearGradient id="paint11_linear_165_1432" x1="696.571" y1="29.5" x2="696.571" y2="894"
                        gradientUnits="userSpaceOnUse">
            <stop stop-color="white" stop-opacity="0"/>
            <stop offset="1" stop-color="white"/>
        </linearGradient>
        <linearGradient id="paint12_linear_165_1432" x1="696.571" y1="29.5" x2="696.571" y2="894"
                        gradientUnits="userSpaceOnUse">
            <stop stop-color="white" stop-opacity="0"/>
            <stop offset="1" stop-color="white"/>
        </linearGradient>
        <linearGradient id="paint13_linear_165_1432" x1="696.571" y1="29.5" x2="696.571" y2="894"
                        gradientUnits="userSpaceOnUse">
            <stop stop-color="white" stop-opacity="0"/>
            <stop offset="1" stop-color="white"/>
        </linearGradient>
        <linearGradient id="paint14_linear_165_1432" x1="696.571" y1="29.5" x2="696.571" y2="894"
                        gradientUnits="userSpaceOnUse">
            <stop stop-color="white" stop-opacity="0"/>
            <stop offset="1" stop-color="white"/>
        </linearGradient>
        <linearGradient id="paint15_linear_165_1432" x1="696.571" y1="29.5" x2="696.571" y2="894"
                        gradientUnits="userSpaceOnUse">
            <stop stop-color="white" stop-opacity="0"/>
            <stop offset="1" stop-color="white"/>
        </linearGradient>
        <linearGradient id="paint16_linear_165_1432" x1="696.571" y1="29.5" x2="696.571" y2="894"
                        gradientUnits="userSpaceOnUse">
            <stop stop-color="white" stop-opacity="0"/>
            <stop offset="1" stop-color="white"/>
        </linearGradient>
        <linearGradient id="paint17_linear_165_1432" x1="696.571" y1="29.5" x2="696.571" y2="894"
                        gradientUnits="userSpaceOnUse">
            <stop stop-color="white" stop-opacity="0"/>
            <stop offset="1" stop-color="white"/>
        </linearGradient>
        <linearGradient id="paint18_linear_165_1432" x1="696.571" y1="29.5" x2="696.571" y2="894"
                        gradientUnits="userSpaceOnUse">
            <stop stop-color="white" stop-opacity="0"/>
            <stop offset="1" stop-color="white"/>
        </linearGradient>
        <linearGradient id="paint19_linear_165_1432" x1="696.571" y1="29.5" x2="696.571" y2="894"
                        gradientUnits="userSpaceOnUse">
            <stop stop-color="white" stop-opacity="0"/>
            <stop offset="1" stop-color="white"/>
        </linearGradient>
        <linearGradient id="paint20_linear_165_1432" x1="696.571" y1="29.5" x2="696.571" y2="894"
                        gradientUnits="userSpaceOnUse">
            <stop stop-color="white" stop-opacity="0"/>
            <stop offset="1" stop-color="white"/>
        </linearGradient>
        <linearGradient id="paint21_linear_165_1432" x1="696.571" y1="29.5" x2="696.571" y2="894"
                        gradientUnits="userSpaceOnUse">
            <stop stop-color="white" stop-opacity="0"/>
            <stop offset="1" stop-color="white"/>
        </linearGradient>
        <linearGradient id="paint22_linear_165_1432" x1="696.571" y1="29.5" x2="696.571" y2="894"
                        gradientUnits="userSpaceOnUse">
            <stop stop-color="white" stop-opacity="0"/>
            <stop offset="1" stop-color="white"/>
        </linearGradient>
        <linearGradient id="paint23_linear_165_1432" x1="696.571" y1="29.5" x2="696.571" y2="894"
                        gradientUnits="userSpaceOnUse">
            <stop stop-color="white" stop-opacity="0"/>
            <stop offset="1" stop-color="white"/>
        </linearGradient>
        <linearGradient id="paint24_linear_165_1432" x1="696.571" y1="29.5" x2="696.571" y2="894"
                        gradientUnits="userSpaceOnUse">
            <stop stop-color="white" stop-opacity="0"/>
            <stop offset="1" stop-color="white"/>
        </linearGradient>
        <linearGradient id="paint25_linear_165_1432" x1="696.571" y1="29.5" x2="696.571" y2="894"
                        gradientUnits="userSpaceOnUse">
            <stop stop-color="white" stop-opacity="0"/>
            <stop offset="1" stop-color="white"/>
        </linearGradient>
        <linearGradient id="paint26_linear_165_1432" x1="696.571" y1="29.5" x2="696.571" y2="894"
                        gradientUnits="userSpaceOnUse">
            <stop stop-color="white" stop-opacity="0"/>
            <stop offset="1" stop-color="white"/>
        </linearGradient>
        <linearGradient id="paint27_linear_165_1432" x1="696.571" y1="29.5" x2="696.571" y2="894"
                        gradientUnits="userSpaceOnUse">
            <stop stop-color="white" stop-opacity="0"/>
            <stop offset="1" stop-color="white"/>
        </linearGradient>
        <linearGradient id="paint28_linear_165_1432" x1="696.571" y1="29.5" x2="696.571" y2="894"
                        gradientUnits="userSpaceOnUse">
            <stop stop-color="white" stop-opacity="0"/>
            <stop offset="1" stop-color="white"/>
        </linearGradient>
        <linearGradient id="paint29_linear_165_1432" x1="696.571" y1="29.5" x2="696.571" y2="894"
                        gradientUnits="userSpaceOnUse">
            <stop stop-color="white" stop-opacity="0"/>
            <stop offset="1" stop-color="white"/>
        </linearGradient>
        <linearGradient id="paint30_linear_165_1432" x1="696.571" y1="29.5" x2="696.571" y2="894"
                        gradientUnits="userSpaceOnUse">
            <stop stop-color="white" stop-opacity="0"/>
            <stop offset="1" stop-color="white"/>
        </linearGradient>
        <linearGradient id="paint31_linear_165_1432" x1="696.571" y1="29.5" x2="696.571" y2="894"
                        gradientUnits="userSpaceOnUse">
            <stop stop-color="white" stop-opacity="0"/>
            <stop offset="1" stop-color="white"/>
        </linearGradient>
        <linearGradient id="paint32_linear_165_1432" x1="696.571" y1="29.5" x2="696.571" y2="894"
                        gradientUnits="userSpaceOnUse">
            <stop stop-color="white" stop-opacity="0"/>
            <stop offset="1" stop-color="white"/>
        </linearGradient>
        <linearGradient id="paint33_linear_165_1432" x1="696.571" y1="29.5" x2="696.571" y2="894"
                        gradientUnits="userSpaceOnUse">
            <stop stop-color="white" stop-opacity="0"/>
            <stop offset="1" stop-color="white"/>
        </linearGradient>
        <linearGradient id="paint34_linear_165_1432" x1="696.571" y1="29.5" x2="696.571" y2="894"
                        gradientUnits="userSpaceOnUse">
            <stop stop-color="white" stop-opacity="0"/>
            <stop offset="1" stop-color="white"/>
        </linearGradient>
        <linearGradient id="paint35_linear_165_1432" x1="696.571" y1="29.5" x2="696.571" y2="894"
                        gradientUnits="userSpaceOnUse">
            <stop stop-color="white" stop-opacity="0"/>
            <stop offset="1" stop-color="white"/>
        </linearGradient>
        <linearGradient id="paint36_linear_165_1432" x1="696.571" y1="29.5" x2="696.571" y2="894"
                        gradientUnits="userSpaceOnUse">
            <stop stop-color="white" stop-opacity="0"/>
            <stop offset="1" stop-color="white"/>
        </linearGradient>
        <linearGradient id="paint37_linear_165_1432" x1="696.571" y1="29.5" x2="696.571" y2="894"
                        gradientUnits="userSpaceOnUse">
            <stop stop-color="white" stop-opacity="0"/>
            <stop offset="1" stop-color="white"/>
        </linearGradient>
        <linearGradient id="paint38_linear_165_1432" x1="696.571" y1="29.5" x2="696.571" y2="894"
                        gradientUnits="userSpaceOnUse">
            <stop stop-color="white" stop-opacity="0"/>
            <stop offset="1" stop-color="white"/>
        </linearGradient>
        <linearGradient id="paint39_linear_165_1432" x1="696.571" y1="29.5" x2="696.571" y2="894"
                        gradientUnits="userSpaceOnUse">
            <stop stop-color="white" stop-opacity="0"/>
            <stop offset="1" stop-color="white"/>
        </linearGradient>
        <linearGradient id="paint40_linear_165_1432" x1="696.571" y1="29.5" x2="696.571" y2="894"
                        gradientUnits="userSpaceOnUse">
            <stop stop-color="white" stop-opacity="0"/>
            <stop offset="1" stop-color="white"/>
        </linearGradient>
        <linearGradient id="paint41_linear_165_1432" x1="696.571" y1="29.5" x2="696.571" y2="894"
                        gradientUnits="userSpaceOnUse">
            <stop stop-color="white" stop-opacity="0"/>
            <stop offset="1" stop-color="white"/>
        </linearGradient>
        <linearGradient id="paint42_linear_165_1432" x1="696.571" y1="29.5" x2="696.571" y2="894"
                        gradientUnits="userSpaceOnUse">
            <stop stop-color="white" stop-opacity="0"/>
            <stop offset="1" stop-color="white"/>
        </linearGradient>
        <linearGradient id="paint43_linear_165_1432" x1="696.571" y1="29.5" x2="696.571" y2="894"
                        gradientUnits="userSpaceOnUse">
            <stop stop-color="white" stop-opacity="0"/>
            <stop offset="1" stop-color="white"/>
        </linearGradient>
        <linearGradient id="paint44_linear_165_1432" x1="696.571" y1="29.5" x2="696.571" y2="894"
                        gradientUnits="userSpaceOnUse">
            <stop stop-color="white" stop-opacity="0"/>
            <stop offset="1" stop-color="white"/>
        </linearGradient>
        <linearGradient id="paint45_linear_165_1432" x1="696.571" y1="29.5" x2="696.571" y2="894"
                        gradientUnits="userSpaceOnUse">
            <stop stop-color="white" stop-opacity="0"/>
            <stop offset="1" stop-color="white"/>
        </linearGradient>
        <linearGradient id="paint46_linear_165_1432" x1="696.571" y1="29.5" x2="696.571" y2="894"
                        gradientUnits="userSpaceOnUse">
            <stop stop-color="white" stop-opacity="0"/>
            <stop offset="1" stop-color="white"/>
        </linearGradient>
        <linearGradient id="paint47_linear_165_1432" x1="696.571" y1="29.5" x2="696.571" y2="894"
                        gradientUnits="userSpaceOnUse">
            <stop stop-color="white" stop-opacity="0"/>
            <stop offset="1" stop-color="white"/>
        </linearGradient>
        <linearGradient id="paint48_linear_165_1432" x1="696.571" y1="29.5" x2="696.571" y2="894"
                        gradientUnits="userSpaceOnUse">
            <stop stop-color="white" stop-opacity="0"/>
            <stop offset="1" stop-color="white"/>
        </linearGradient>
        <linearGradient id="paint49_linear_165_1432" x1="696.571" y1="29.5" x2="696.571" y2="894"
                        gradientUnits="userSpaceOnUse">
            <stop stop-color="white" stop-opacity="0"/>
            <stop offset="1" stop-color="white"/>
        </linearGradient>
        <linearGradient id="paint50_linear_165_1432" x1="696.571" y1="29.5" x2="696.571" y2="894"
                        gradientUnits="userSpaceOnUse">
            <stop stop-color="white" stop-opacity="0"/>
            <stop offset="1" stop-color="white"/>
        </linearGradient>
        <linearGradient id="paint51_linear_165_1432" x1="696.571" y1="29.5" x2="696.571" y2="894"
                        gradientUnits="userSpaceOnUse">
            <stop stop-color="white" stop-opacity="0"/>
            <stop offset="1" stop-color="white"/>
        </linearGradient>
        <linearGradient id="paint52_linear_165_1432" x1="696.571" y1="29.5" x2="696.571" y2="894"
                        gradientUnits="userSpaceOnUse">
            <stop stop-color="white" stop-opacity="0"/>
            <stop offset="1" stop-color="white"/>
        </linearGradient>
        <linearGradient id="paint53_linear_165_1432" x1="696.571" y1="29.5" x2="696.571" y2="894"
                        gradientUnits="userSpaceOnUse">
            <stop stop-color="white" stop-opacity="0"/>
            <stop offset="1" stop-color="white"/>
        </linearGradient>
        <linearGradient id="paint54_linear_165_1432" x1="696.571" y1="29.5" x2="696.571" y2="894"
                        gradientUnits="userSpaceOnUse">
            <stop stop-color="white" stop-opacity="0"/>
            <stop offset="1" stop-color="white"/>
        </linearGradient>
        <linearGradient id="paint55_linear_165_1432" x1="696.571" y1="29.5" x2="696.571" y2="894"
                        gradientUnits="userSpaceOnUse">
            <stop stop-color="white" stop-opacity="0"/>
            <stop offset="1" stop-color="white"/>
        </linearGradient>
        <linearGradient id="paint56_linear_165_1432" x1="696.571" y1="29.5" x2="696.571" y2="894"
                        gradientUnits="userSpaceOnUse">
            <stop stop-color="white" stop-opacity="0"/>
            <stop offset="1" stop-color="white"/>
        </linearGradient>
        <linearGradient id="paint57_linear_165_1432" x1="696.571" y1="29.5" x2="696.571" y2="894"
                        gradientUnits="userSpaceOnUse">
            <stop stop-color="white" stop-opacity="0"/>
            <stop offset="1" stop-color="white"/>
        </linearGradient>
        <linearGradient id="paint58_linear_165_1432" x1="696.571" y1="29.5" x2="696.571" y2="894"
                        gradientUnits="userSpaceOnUse">
            <stop stop-color="white" stop-opacity="0"/>
            <stop offset="1" stop-color="white"/>
        </linearGradient>
        <linearGradient id="paint59_linear_165_1432" x1="696.571" y1="29.5" x2="696.571" y2="894"
                        gradientUnits="userSpaceOnUse">
            <stop stop-color="white" stop-opacity="0"/>
            <stop offset="1" stop-color="white"/>
        </linearGradient>
        <linearGradient id="paint60_linear_165_1432" x1="696.571" y1="29.5" x2="696.571" y2="894"
                        gradientUnits="userSpaceOnUse">
            <stop stop-color="white" stop-opacity="0"/>
            <stop offset="1" stop-color="white"/>
        </linearGradient>
        <linearGradient id="paint61_linear_165_1432" x1="696.571" y1="29.5" x2="696.571" y2="894"
                        gradientUnits="userSpaceOnUse">
            <stop stop-color="white" stop-opacity="0"/>
            <stop offset="1" stop-color="white"/>
        </linearGradient>
        <linearGradient id="paint62_linear_165_1432" x1="696.571" y1="29.5" x2="696.571" y2="894"
                        gradientUnits="userSpaceOnUse">
            <stop stop-color="white" stop-opacity="0"/>
            <stop offset="1" stop-color="white"/>
        </linearGradient>
        <linearGradient id="paint63_linear_165_1432" x1="696.571" y1="29.5" x2="696.571" y2="894"
                        gradientUnits="userSpaceOnUse">
            <stop stop-color="white" stop-opacity="0"/>
            <stop offset="1" stop-color="white"/>
        </linearGradient>
        <linearGradient id="paint64_linear_165_1432" x1="696.571" y1="29.5" x2="696.571" y2="894"
                        gradientUnits="userSpaceOnUse">
            <stop stop-color="white" stop-opacity="0"/>
            <stop offset="1" stop-color="white"/>
        </linearGradient>
        <linearGradient id="paint65_linear_165_1432" x1="696.571" y1="29.5" x2="696.571" y2="894"
                        gradientUnits="userSpaceOnUse">
            <stop stop-color="white" stop-opacity="0"/>
            <stop offset="1" stop-color="white"/>
        </linearGradient>
        <linearGradient id="paint66_linear_165_1432" x1="696.571" y1="29.5" x2="696.571" y2="894"
                        gradientUnits="userSpaceOnUse">
            <stop stop-color="white" stop-opacity="0"/>
            <stop offset="1" stop-color="white"/>
        </linearGradient>
        <linearGradient id="paint67_linear_165_1432" x1="696.571" y1="29.5" x2="696.571" y2="894"
                        gradientUnits="userSpaceOnUse">
            <stop stop-color="white" stop-opacity="0"/>
            <stop offset="1" stop-color="white"/>
        </linearGradient>
        <linearGradient id="paint68_linear_165_1432" x1="696.571" y1="29.5" x2="696.571" y2="894"
                        gradientUnits="userSpaceOnUse">
            <stop stop-color="white" stop-opacity="0"/>
            <stop offset="1" stop-color="white"/>
        </linearGradient>
        <linearGradient id="paint69_linear_165_1432" x1="696.571" y1="29.5" x2="696.571" y2="894"
                        gradientUnits="userSpaceOnUse">
            <stop stop-color="white" stop-opacity="0"/>
            <stop offset="1" stop-color="white"/>
        </linearGradient>
        <linearGradient id="paint70_linear_165_1432" x1="696.571" y1="29.5" x2="696.571" y2="894"
                        gradientUnits="userSpaceOnUse">
            <stop stop-color="white" stop-opacity="0"/>
            <stop offset="1" stop-color="white"/>
        </linearGradient>
        <linearGradient id="paint71_linear_165_1432" x1="696.571" y1="29.5" x2="696.571" y2="894"
                        gradientUnits="userSpaceOnUse">
            <stop stop-color="white" stop-opacity="0"/>
            <stop offset="1" stop-color="white"/>
        </linearGradient>
        <linearGradient id="paint72_linear_165_1432" x1="696.571" y1="29.5" x2="696.571" y2="894"
                        gradientUnits="userSpaceOnUse">
            <stop stop-color="white" stop-opacity="0"/>
            <stop offset="1" stop-color="white"/>
        </linearGradient>
        <linearGradient id="paint73_linear_165_1432" x1="696.571" y1="29.5" x2="696.571" y2="894"
                        gradientUnits="userSpaceOnUse">
            <stop stop-color="white" stop-opacity="0"/>
            <stop offset="1" stop-color="white"/>
        </linearGradient>
        <linearGradient id="paint74_linear_165_1432" x1="696.571" y1="29.5" x2="696.571" y2="894"
                        gradientUnits="userSpaceOnUse">
            <stop stop-color="white" stop-opacity="0"/>
            <stop offset="1" stop-color="white"/>
        </linearGradient>
        <linearGradient id="paint75_linear_165_1432" x1="696.571" y1="29.5" x2="696.571" y2="894"
                        gradientUnits="userSpaceOnUse">
            <stop stop-color="white" stop-opacity="0"/>
            <stop offset="1" stop-color="white"/>
        </linearGradient>
        <linearGradient id="paint76_linear_165_1432" x1="696.571" y1="29.5" x2="696.571" y2="894"
                        gradientUnits="userSpaceOnUse">
            <stop stop-color="white" stop-opacity="0"/>
            <stop offset="1" stop-color="white"/>
        </linearGradient>
        <linearGradient id="paint77_linear_165_1432" x1="696.571" y1="29.5" x2="696.571" y2="894"
                        gradientUnits="userSpaceOnUse">
            <stop stop-color="white" stop-opacity="0"/>
            <stop offset="1" stop-color="white"/>
        </linearGradient>
        <linearGradient id="paint78_linear_165_1432" x1="696.571" y1="29.5" x2="696.571" y2="894"
                        gradientUnits="userSpaceOnUse">
            <stop stop-color="white" stop-opacity="0"/>
            <stop offset="1" stop-color="white"/>
        </linearGradient>
        <linearGradient id="paint79_linear_165_1432" x1="696.571" y1="29.5" x2="696.571" y2="894"
                        gradientUnits="userSpaceOnUse">
            <stop stop-color="white" stop-opacity="0"/>
            <stop offset="1" stop-color="white"/>
        </linearGradient>
        <linearGradient id="paint80_linear_165_1432" x1="696.571" y1="29.5" x2="696.571" y2="894"
                        gradientUnits="userSpaceOnUse">
            <stop stop-color="white" stop-opacity="0"/>
            <stop offset="1" stop-color="white"/>
        </linearGradient>
        <linearGradient id="paint81_linear_165_1432" x1="696.571" y1="29.5" x2="696.571" y2="894"
                        gradientUnits="userSpaceOnUse">
            <stop stop-color="white" stop-opacity="0"/>
            <stop offset="1" stop-color="white"/>
        </linearGradient>
        <linearGradient id="paint82_linear_165_1432" x1="696.571" y1="29.5" x2="696.571" y2="894"
                        gradientUnits="userSpaceOnUse">
            <stop stop-color="white" stop-opacity="0"/>
            <stop offset="1" stop-color="white"/>
        </linearGradient>
        <linearGradient id="paint83_linear_165_1432" x1="696.571" y1="29.5" x2="696.571" y2="894"
                        gradientUnits="userSpaceOnUse">
            <stop stop-color="white" stop-opacity="0"/>
            <stop offset="1" stop-color="white"/>
        </linearGradient>
        <linearGradient id="paint84_linear_165_1432" x1="696.571" y1="29.5" x2="696.571" y2="894"
                        gradientUnits="userSpaceOnUse">
            <stop stop-color="white" stop-opacity="0"/>
            <stop offset="1" stop-color="white"/>
        </linearGradient>
        <linearGradient id="paint85_linear_165_1432" x1="696.571" y1="29.5" x2="696.571" y2="894"
                        gradientUnits="userSpaceOnUse">
            <stop stop-color="white" stop-opacity="0"/>
            <stop offset="1" stop-color="white"/>
        </linearGradient>
        <linearGradient id="paint86_linear_165_1432" x1="696.571" y1="29.5" x2="696.571" y2="894"
                        gradientUnits="userSpaceOnUse">
            <stop stop-color="white" stop-opacity="0"/>
            <stop offset="1" stop-color="white"/>
        </linearGradient>
        <linearGradient id="paint87_linear_165_1432" x1="696.571" y1="29.5" x2="696.571" y2="894"
                        gradientUnits="userSpaceOnUse">
            <stop stop-color="white" stop-opacity="0"/>
            <stop offset="1" stop-color="white"/>
        </linearGradient>
        <linearGradient id="paint88_linear_165_1432" x1="696.571" y1="29.5" x2="696.571" y2="894"
                        gradientUnits="userSpaceOnUse">
            <stop stop-color="white" stop-opacity="0"/>
            <stop offset="1" stop-color="white"/>
        </linearGradient>
        <linearGradient id="paint89_linear_165_1432" x1="696.571" y1="29.5" x2="696.571" y2="894"
                        gradientUnits="userSpaceOnUse">
            <stop stop-color="white" stop-opacity="0"/>
            <stop offset="1" stop-color="white"/>
        </linearGradient>
        <linearGradient id="paint90_linear_165_1432" x1="696.571" y1="29.5" x2="696.571" y2="894"
                        gradientUnits="userSpaceOnUse">
            <stop stop-color="white" stop-opacity="0"/>
            <stop offset="1" stop-color="white"/>
        </linearGradient>
        <linearGradient id="paint91_linear_165_1432" x1="696.571" y1="29.5" x2="696.571" y2="894"
                        gradientUnits="userSpaceOnUse">
            <stop stop-color="white" stop-opacity="0"/>
            <stop offset="1" stop-color="white"/>
        </linearGradient>
        <linearGradient id="paint92_linear_165_1432" x1="696.571" y1="29.5" x2="696.571" y2="894"
                        gradientUnits="userSpaceOnUse">
            <stop stop-color="white" stop-opacity="0"/>
            <stop offset="1" stop-color="white"/>
        </linearGradient>
        <linearGradient id="paint93_linear_165_1432" x1="696.571" y1="29.5" x2="696.571" y2="894"
                        gradientUnits="userSpaceOnUse">
            <stop stop-color="white" stop-opacity="0"/>
            <stop offset="1" stop-color="white"/>
        </linearGradient>
        <linearGradient id="paint94_linear_165_1432" x1="696.571" y1="29.5" x2="696.571" y2="894"
                        gradientUnits="userSpaceOnUse">
            <stop stop-color="white" stop-opacity="0"/>
            <stop offset="1" stop-color="white"/>
        </linearGradient>
        <linearGradient id="paint95_linear_165_1432" x1="696.571" y1="29.5" x2="696.571" y2="894"
                        gradientUnits="userSpaceOnUse">
            <stop stop-color="white" stop-opacity="0"/>
            <stop offset="1" stop-color="white"/>
        </linearGradient>
        <linearGradient id="paint96_linear_165_1432" x1="696.571" y1="29.5" x2="696.571" y2="894"
                        gradientUnits="userSpaceOnUse">
            <stop stop-color="white" stop-opacity="0"/>
            <stop offset="1" stop-color="white"/>
        </linearGradient>
        <linearGradient id="paint97_linear_165_1432" x1="696.571" y1="29.5" x2="696.571" y2="894"
                        gradientUnits="userSpaceOnUse">
            <stop stop-color="white" stop-opacity="0"/>
            <stop offset="1" stop-color="white"/>
        </linearGradient>
        <linearGradient id="paint98_linear_165_1432" x1="696.571" y1="29.5" x2="696.571" y2="894"
                        gradientUnits="userSpaceOnUse">
            <stop stop-color="white" stop-opacity="0"/>
            <stop offset="1" stop-color="white"/>
        </linearGradient>
        <linearGradient id="paint99_linear_165_1432" x1="696.571" y1="29.5" x2="696.571" y2="894"
                        gradientUnits="userSpaceOnUse">
            <stop stop-color="white" stop-opacity="0"/>
            <stop offset="1" stop-color="white"/>
        </linearGradient>
        <linearGradient id="paint100_linear_165_1432" x1="696.571" y1="29.5" x2="696.571" y2="894"
                        gradientUnits="userSpaceOnUse">
            <stop stop-color="white" stop-opacity="0"/>
            <stop offset="1" stop-color="white"/>
        </linearGradient>
        <linearGradient id="paint101_linear_165_1432" x1="696.571" y1="29.5" x2="696.571" y2="894"
                        gradientUnits="userSpaceOnUse">
            <stop stop-color="white" stop-opacity="0"/>
            <stop offset="1" stop-color="white"/>
        </linearGradient>
        <linearGradient id="paint102_linear_165_1432" x1="696.571" y1="29.5" x2="696.571" y2="894"
                        gradientUnits="userSpaceOnUse">
            <stop stop-color="white" stop-opacity="0"/>
            <stop offset="1" stop-color="white"/>
        </linearGradient>
        <linearGradient id="paint103_linear_165_1432" x1="696.571" y1="29.5" x2="696.571" y2="894"
                        gradientUnits="userSpaceOnUse">
            <stop stop-color="white" stop-opacity="0"/>
            <stop offset="1" stop-color="white"/>
        </linearGradient>
        <linearGradient id="paint104_linear_165_1432" x1="696.571" y1="29.5" x2="696.571" y2="894"
                        gradientUnits="userSpaceOnUse">
            <stop stop-color="white" stop-opacity="0"/>
            <stop offset="1" stop-color="white"/>
        </linearGradient>
        <linearGradient id="paint105_linear_165_1432" x1="696.571" y1="29.5" x2="696.571" y2="894"
                        gradientUnits="userSpaceOnUse">
            <stop stop-color="white" stop-opacity="0"/>
            <stop offset="1" stop-color="white"/>
        </linearGradient>
        <linearGradient id="paint106_linear_165_1432" x1="696.571" y1="29.5" x2="696.571" y2="894"
                        gradientUnits="userSpaceOnUse">
            <stop stop-color="white" stop-opacity="0"/>
            <stop offset="1" stop-color="white"/>
        </linearGradient>
        <linearGradient id="paint107_linear_165_1432" x1="696.571" y1="29.5" x2="696.571" y2="894"
                        gradientUnits="userSpaceOnUse">
            <stop stop-color="white" stop-opacity="0"/>
            <stop offset="1" stop-color="white"/>
        </linearGradient>
        <linearGradient id="paint108_linear_165_1432" x1="696.571" y1="29.5" x2="696.571" y2="894"
                        gradientUnits="userSpaceOnUse">
            <stop stop-color="white" stop-opacity="0"/>
            <stop offset="1" stop-color="white"/>
        </linearGradient>
        <linearGradient id="paint109_linear_165_1432" x1="696.571" y1="29.5" x2="696.571" y2="894"
                        gradientUnits="userSpaceOnUse">
            <stop stop-color="white" stop-opacity="0"/>
            <stop offset="1" stop-color="white"/>
        </linearGradient>
        <linearGradient id="paint110_linear_165_1432" x1="696.571" y1="29.5" x2="696.571" y2="894"
                        gradientUnits="userSpaceOnUse">
            <stop stop-color="white" stop-opacity="0"/>
            <stop offset="1" stop-color="white"/>
        </linearGradient>
        <linearGradient id="paint111_linear_165_1432" x1="696.571" y1="29.5" x2="696.571" y2="894"
                        gradientUnits="userSpaceOnUse">
            <stop stop-color="white" stop-opacity="0"/>
            <stop offset="1" stop-color="white"/>
        </linearGradient>
        <linearGradient id="paint112_linear_165_1432" x1="696.571" y1="29.5" x2="696.571" y2="894"
                        gradientUnits="userSpaceOnUse">
            <stop stop-color="white" stop-opacity="0"/>
            <stop offset="1" stop-color="white"/>
        </linearGradient>
        <linearGradient id="paint113_linear_165_1432" x1="696.571" y1="29.5" x2="696.571" y2="894"
                        gradientUnits="userSpaceOnUse">
            <stop stop-color="white" stop-opacity="0"/>
            <stop offset="1" stop-color="white"/>
        </linearGradient>
        <linearGradient id="paint114_linear_165_1432" x1="696.571" y1="29.5" x2="696.571" y2="894"
                        gradientUnits="userSpaceOnUse">
            <stop stop-color="white" stop-opacity="0"/>
            <stop offset="1" stop-color="white"/>
        </linearGradient>
        <linearGradient id="paint115_linear_165_1432" x1="696.571" y1="29.5" x2="696.571" y2="894"
                        gradientUnits="userSpaceOnUse">
            <stop stop-color="white" stop-opacity="0"/>
            <stop offset="1" stop-color="white"/>
        </linearGradient>
        <linearGradient id="paint116_linear_165_1432" x1="696.571" y1="29.5" x2="696.571" y2="894"
                        gradientUnits="userSpaceOnUse">
            <stop stop-color="white" stop-opacity="0"/>
            <stop offset="1" stop-color="white"/>
        </linearGradient>
        <linearGradient id="paint117_linear_165_1432" x1="696.571" y1="29.5" x2="696.571" y2="894"
                        gradientUnits="userSpaceOnUse">
            <stop stop-color="white" stop-opacity="0"/>
            <stop offset="1" stop-color="white"/>
        </linearGradient>
        <linearGradient id="paint118_linear_165_1432" x1="696.571" y1="29.5" x2="696.571" y2="894"
                        gradientUnits="userSpaceOnUse">
            <stop stop-color="white" stop-opacity="0"/>
            <stop offset="1" stop-color="white"/>
        </linearGradient>
        <linearGradient id="paint119_linear_165_1432" x1="696.571" y1="29.5" x2="696.571" y2="894"
                        gradientUnits="userSpaceOnUse">
            <stop stop-color="white" stop-opacity="0"/>
            <stop offset="1" stop-color="white"/>
        </linearGradient>
        <linearGradient id="paint120_linear_165_1432" x1="696.571" y1="29.5" x2="696.571" y2="894"
                        gradientUnits="userSpaceOnUse">
            <stop stop-color="white" stop-opacity="0"/>
            <stop offset="1" stop-color="white"/>
        </linearGradient>
        <linearGradient id="paint121_linear_165_1432" x1="696.571" y1="29.5" x2="696.571" y2="894"
                        gradientUnits="userSpaceOnUse">
            <stop stop-color="white" stop-opacity="0"/>
            <stop offset="1" stop-color="white"/>
        </linearGradient>
        <linearGradient id="paint122_linear_165_1432" x1="696.571" y1="29.5" x2="696.571" y2="894"
                        gradientUnits="userSpaceOnUse">
            <stop stop-color="white" stop-opacity="0"/>
            <stop offset="1" stop-color="white"/>
        </linearGradient>
        <linearGradient id="paint123_linear_165_1432" x1="696.571" y1="29.5" x2="696.571" y2="894"
                        gradientUnits="userSpaceOnUse">
            <stop stop-color="white" stop-opacity="0"/>
            <stop offset="1" stop-color="white"/>
        </linearGradient>
        <linearGradient id="paint124_linear_165_1432" x1="696.571" y1="29.5" x2="696.571" y2="894"
                        gradientUnits="userSpaceOnUse">
            <stop stop-color="white" stop-opacity="0"/>
            <stop offset="1" stop-color="white"/>
        </linearGradient>
        <linearGradient id="paint125_linear_165_1432" x1="696.571" y1="29.5" x2="696.571" y2="894"
                        gradientUnits="userSpaceOnUse">
            <stop stop-color="white" stop-opacity="0"/>
            <stop offset="1" stop-color="white"/>
        </linearGradient>
    </defs>
</svg>
