<svg width="20" height="20" viewBox="0 0 20 20" fill="none" xmlns="http://www.w3.org/2000/svg">
    <path fill-rule="evenodd" clip-rule="evenodd"
          d="M10.0003 2.41667C5.81217 2.41667 2.41699 5.81185 2.41699 10C2.41699 14.1882 5.81217 17.5833 10.0003 17.5833C14.1885 17.5833 17.5837 14.1882 17.5837 10C17.5837 5.81185 14.1885 2.41667 10.0003 2.41667ZM0.916992 10C0.916992 4.98342 4.98374 0.916672 10.0003 0.916672C15.0169 0.916672 19.0837 4.98342 19.0837 10C19.0837 15.0166 15.0169 19.0833 10.0003 19.0833C4.98374 19.0833 0.916992 15.0166 0.916992 10ZM10.0003 8.41667C10.4145 8.41667 10.7503 8.75246 10.7503 9.16667V13.3333C10.7503 13.7476 10.4145 14.0833 10.0003 14.0833C9.58611 14.0833 9.25033 13.7476 9.25033 13.3333V9.16667C9.25033 8.75246 9.58611 8.41667 10.0003 8.41667ZM10.0003 7.50001C10.4606 7.50001 10.8337 7.12691 10.8337 6.66667C10.8337 6.20643 10.4606 5.83334 10.0003 5.83334C9.54009 5.83334 9.16699 6.20643 9.16699 6.66667C9.16699 7.12691 9.54009 7.50001 10.0003 7.50001Z"
          fill="#7D7D7D"/>
</svg>
