<svg width="16" height="16" viewBox="0 0 16 16" fill="none" xmlns="http://www.w3.org/2000/svg">
    <path d="M2.6665 8.81714C2.6665 8.56401 2.85461 8.35482 3.09866 8.32171L3.1665 8.31714L11.9558 8.31754L8.78051 5.15519C8.58483 4.96035 8.58415 4.64377 8.77899 4.44808C8.95612 4.27019 9.23386 4.25346 9.42991 4.39827L9.4861 4.44656L13.5194 8.46256C13.5452 8.48824 13.5676 8.51604 13.5866 8.54539C13.592 8.55423 13.5975 8.56327 13.6027 8.57249C13.6074 8.58039 13.6117 8.5886 13.6158 8.5969C13.6214 8.60897 13.627 8.62144 13.632 8.63417C13.636 8.64398 13.6394 8.65353 13.6425 8.66315C13.6462 8.67508 13.6498 8.68779 13.6529 8.7007C13.6552 8.70971 13.657 8.71838 13.6586 8.72709C13.6608 8.74004 13.6627 8.75344 13.664 8.76701C13.6652 8.77735 13.6659 8.7876 13.6663 8.79786C13.6664 8.80409 13.6665 8.8106 13.6665 8.81714L13.6663 8.83651C13.6659 8.84632 13.6652 8.85613 13.6642 8.86591L13.6665 8.81714C13.6665 8.84869 13.6636 8.87956 13.658 8.9095C13.6567 8.91664 13.6552 8.92398 13.6534 8.93129C13.6499 8.94634 13.6458 8.96084 13.6411 8.97505C13.6387 8.98211 13.636 8.98965 13.6331 8.99714C13.6273 9.01218 13.621 9.02652 13.614 9.04049C13.6107 9.04706 13.6071 9.05394 13.6033 9.06075C13.597 9.07185 13.5906 9.08241 13.5838 9.09269C13.579 9.09997 13.5737 9.10755 13.5681 9.11501L13.5638 9.12077C13.5503 9.13837 13.5357 9.15505 13.5201 9.1707L13.5195 9.17116L9.48612 13.1878C9.29046 13.3827 8.97388 13.382 8.77902 13.1864C8.60188 13.0085 8.58631 12.7307 8.73196 12.5352L8.78048 12.4793L11.9545 9.31754L3.1665 9.31714C2.89036 9.31714 2.6665 9.09328 2.6665 8.81714Z"
          fill="#111827"/>
</svg>
