<svg width="18" height="18" viewBox="0 0 18 18" fill="none" xmlns="http://www.w3.org/2000/svg">
    <path d="M9.02709 0.0975391V0.106406C9.03596 0.150741 9.03596 0.203943 9.03596 0.257145V6.65025C9.02709 6.68572 9.00049 6.69458 8.97389 6.71232C8.78768 6.80099 8.61034 6.88079 8.42413 6.96059C8.16699 7.07587 7.90098 7.2 7.64384 7.31527L6.7128 7.74089C6.45566 7.85616 6.19852 7.97143 5.95024 8.0867C5.64876 8.22857 5.33842 8.36158 5.03694 8.50345C4.7798 8.61872 4.52265 8.74286 4.25664 8.85813C4.04384 8.95567 3.83103 9.04434 3.62709 9.14188C3.60935 9.15074 3.59162 9.15961 3.57389 9.15961C3.56502 9.15961 3.56502 9.15961 3.55615 9.15074L3.79556 8.75173C4.25664 7.98917 4.70886 7.23547 5.16995 6.47291C5.65763 5.65715 6.15418 4.84138 6.64187 4.02562C7.09408 3.27192 7.55517 2.51823 8.00738 1.76453C8.33546 1.21478 8.67241 0.665027 9.00049 0.115273C9.00935 0.0975391 9.01822 0.0886721 9.01822 0.0709381H9.02709C9.01822 0.0798051 9.02709 0.0886721 9.02709 0.0975391Z"
          fill="white"/>
    <path d="M14.4709 9.15074L14.4797 9.15961L13.1763 9.93104L9.07973 12.3517C9.06199 12.3606 9.04426 12.3695 9.03539 12.3783C9.00879 12.3783 9.00879 12.3517 9.00879 12.3429V12.2631V6.78326C9.00879 6.75666 9.00879 6.72119 9.01766 6.69459C9.02652 6.65912 9.05312 6.66799 9.07973 6.67685C9.195 6.73006 9.31913 6.78326 9.4344 6.83646C9.78022 6.99607 10.126 7.15567 10.4718 7.30641C10.7733 7.43941 11.0659 7.58129 11.3674 7.71429C11.6689 7.8473 11.9704 7.98917 12.2718 8.12217C12.529 8.23744 12.795 8.36158 13.0521 8.47685C13.3093 8.59212 13.5753 8.71626 13.8324 8.83153C14.0364 8.9202 14.2403 9.01774 14.4443 9.10641C14.4443 9.13301 14.4531 9.14188 14.4709 9.15074Z"
          fill="#666666"/>
    <path d="M9.0266 17.8847C9.0266 17.8936 9.01773 17.9025 9.01773 17.9113H9.00887C9.00887 17.8936 8.99113 17.8847 8.98227 17.867C8.43251 17.0956 7.88276 16.3153 7.333 15.5438C6.77438 14.7547 6.2069 13.9567 5.64828 13.1675C5.10739 12.4049 4.55763 11.6335 4.01675 10.8709C3.87488 10.667 3.733 10.4719 3.59113 10.268C3.58227 10.2503 3.5734 10.2414 3.55566 10.2148C3.58227 10.2148 3.6 10.2325 3.60887 10.2414C4.38029 10.6936 5.14286 11.1458 5.91428 11.598C6.80098 12.1212 7.67882 12.6443 8.56552 13.1675L9.01773 13.4335C9.03547 13.4512 9.03547 13.469 9.03547 13.4867V17.7606C9.03547 17.8049 9.03547 17.8493 9.0266 17.8847Z"
          fill="white"/>
    <path d="M3.54688 9.16848V9.15961C3.83062 9.03547 4.1055 8.90247 4.38924 8.77833C4.75279 8.60986 5.11633 8.45025 5.47988 8.28178C5.75476 8.15764 6.0385 8.02463 6.31338 7.9005C6.72126 7.71429 7.12027 7.53695 7.52816 7.35074C7.80303 7.2266 8.07791 7.10247 8.36165 6.96946C8.55673 6.88079 8.76067 6.79212 8.95574 6.70345C8.97348 6.69458 9.00008 6.68572 9.00894 6.66798C9.01781 6.66798 9.01781 6.67685 9.00894 6.68572V12.3163C9.00894 12.3429 9.00008 12.3695 9.01781 12.3872C9.00008 12.4138 8.98234 12.3872 8.97348 12.3783C8.89367 12.334 8.81387 12.2897 8.73407 12.2365C7.02274 11.2256 5.30254 10.2059 3.59121 9.19508C3.58234 9.18621 3.56461 9.17734 3.54688 9.16848Z"
          fill="#B3B3B3"/>
    <path d="M14.453 10.2148H14.4619C14.4619 10.2325 14.4442 10.2503 14.4353 10.268C12.8038 12.5645 11.1723 14.87 9.54073 17.1665C9.37226 17.4059 9.19492 17.6453 9.02645 17.8847C9.01758 17.8759 9.01758 17.867 9.01758 17.8581V17.8049V13.5044V13.4246C9.38999 13.203 9.75354 12.9902 10.126 12.7685C11.5624 11.9172 12.9989 11.0749 14.4264 10.2237C14.4353 10.2325 14.4442 10.2236 14.453 10.2148Z"
          fill="#B3B3B3"/>
    <path d="M9.01773 6.68572V6.66798V6.61478V0.177343C9.01773 0.150742 9.00887 0.133008 9.0266 0.106407C10.8266 3.09458 12.6266 6.07389 14.4177 9.06207C14.4355 9.08867 14.4621 9.12414 14.4709 9.15961C14.3468 9.11527 14.2315 9.05321 14.1163 9C13.9744 8.93793 13.8236 8.867 13.6818 8.80493C13.5931 8.76059 13.4956 8.72513 13.4069 8.68079C13.2562 8.60986 13.1054 8.54779 12.9547 8.47685C12.866 8.44138 12.7773 8.39705 12.6887 8.35271L12.1034 8.0867C12.0059 8.04237 11.9084 7.99803 11.802 7.9537L11.3764 7.76749C11.2877 7.73202 11.199 7.68769 11.1103 7.64335L10.5251 7.37734C10.4276 7.33301 10.33 7.28867 10.2236 7.24434L9.79803 7.05813C9.70049 7.0138 9.61182 6.96946 9.51429 6.92513C9.34581 6.84532 9.17734 6.76552 9 6.69458C9.0266 6.68572 9.01773 6.68572 9.01773 6.68572Z"
          fill="#B3B3B3"/>
</svg>
