<svg width="20" height="20" viewBox="0 0 20 20" fill="none" xmlns="http://www.w3.org/2000/svg">
    <path fill-rule="evenodd" clip-rule="evenodd"
          d="M7.14893 13.4462C7.14893 13.101 7.42874 12.8212 7.77393 12.8212H12.6197C12.9649 12.8212 13.2447 13.101 13.2447 13.4462C13.2447 13.7913 12.9649 14.0712 12.6197 14.0712H7.77393C7.42874 14.0712 7.14893 13.7913 7.14893 13.4462Z"
          fill="white"/>
    <path fill-rule="evenodd" clip-rule="evenodd"
          d="M5.88338 4.98136C5.5396 5.29981 5.23091 5.57351 4.95652 5.81536C4.91779 5.8495 4.87986 5.8829 4.8427 5.91561C4.61028 6.12028 4.40787 6.29852 4.22606 6.46635C3.80497 6.85506 3.53898 7.14855 3.35087 7.47679C2.97379 8.13479 2.8335 9.05749 2.8335 11.4275C2.8335 13.1409 2.93605 14.3709 3.1678 15.2627C3.3953 16.1382 3.73443 16.6399 4.18368 16.9623C4.65288 17.2992 5.3227 17.4997 6.33137 17.6037C7.33905 17.7076 8.59598 17.7083 10.1968 17.7083C11.7976 17.7083 13.0546 17.7076 14.0623 17.6037C15.071 17.4997 15.7408 17.2992 16.21 16.9623C16.6592 16.6399 16.9984 16.1382 17.2259 15.2627C17.4576 14.3709 17.5601 13.1409 17.5601 11.4275C17.5601 9.05741 17.4201 8.13471 17.0431 7.47669C16.8551 7.14847 16.5892 6.855 16.1682 6.46631C15.9863 6.29833 15.7837 6.11991 15.5511 5.915C15.5141 5.88247 15.4764 5.84927 15.4379 5.81535C15.1636 5.57349 14.8549 5.29979 14.5111 4.98134C14.3076 4.817 14.0967 4.63918 13.8782 4.45489C13.4023 4.05344 12.8899 3.62127 12.3371 3.23078C11.5164 2.65097 10.7731 2.29166 10.1735 2.29166C9.5759 2.29166 8.84273 2.651 8.03277 3.23168C7.5042 3.61064 7.02068 4.02249 6.56635 4.40946C6.33163 4.60939 6.1047 4.80268 5.88338 4.98136ZM7.30444 2.2158C8.13805 1.61815 9.15198 1.04166 10.1735 1.04166C11.1922 1.04166 12.2144 1.61359 13.0584 2.20982C13.6551 2.63131 14.2452 3.12873 14.7394 3.54512C14.9501 3.72273 15.1434 3.88561 15.3121 4.02155C15.3235 4.03066 15.3345 4.04017 15.3451 4.05006C15.6835 4.36384 15.988 4.63391 16.2645 4.87764C16.302 4.91069 16.3391 4.94336 16.3758 4.97568C16.6074 5.1796 16.8226 5.36907 17.0162 5.54789C17.4656 5.9628 17.8438 6.35963 18.1278 6.85537C18.6948 7.84527 18.8101 9.10507 18.8101 11.4275C18.8101 13.167 18.7086 14.5267 18.4357 15.5772C18.1585 16.6439 17.6922 17.4371 16.9389 17.9778C16.2055 18.5042 15.2755 18.7353 14.1905 18.8472C13.1116 18.9583 11.7913 18.9583 10.2278 18.9583H10.1659C8.60231 18.9583 7.28209 18.9583 6.2032 18.8472C5.1182 18.7353 4.18819 18.5042 3.45477 17.9778C2.70142 17.4371 2.2352 16.6439 1.95798 15.5772C1.68501 14.5267 1.5835 13.167 1.5835 11.4275C1.5835 9.10499 1.69905 7.84519 2.26634 6.85527C2.55042 6.35956 2.92875 5.96274 3.3782 5.54785C3.57169 5.36924 3.78663 5.17999 4.01792 4.97633C4.05487 4.9438 4.09224 4.9109 4.13 4.87762C4.40651 4.6339 4.711 4.36383 5.04935 4.05006C5.06003 4.04014 5.07106 4.03061 5.08242 4.02146C5.25919 3.87917 5.46549 3.70377 5.69177 3.51138C6.1701 3.10471 6.7377 2.62211 7.30444 2.2158Z"
          fill="white"/>
</svg>
