<svg width="24" height="26" viewBox="0 0 24 26" fill="none" xmlns="http://www.w3.org/2000/svg">
    <path fill-rule="evenodd" clip-rule="evenodd"
          d="M3.75 20.7656C3.75 20.3514 4.08579 20.0156 4.5 20.0156H20.5C20.9142 20.0156 21.25 20.3514 21.25 20.7656C21.25 21.1798 20.9142 21.5156 20.5 21.5156H4.5C4.08579 21.5156 3.75 21.1798 3.75 20.7656Z"
          fill="#D9D9D9"/>
    <path fill-rule="evenodd" clip-rule="evenodd"
          d="M3.75 6.76562C3.75 6.35141 4.08579 6.01562 4.5 6.01562H20.5C20.9142 6.01562 21.25 6.35141 21.25 6.76562C21.25 7.17984 20.9142 7.51562 20.5 7.51562H4.5C4.08579 7.51562 3.75 7.17984 3.75 6.76562Z"
          fill="#D9D9D9"/>
    <path fill-rule="evenodd" clip-rule="evenodd"
          d="M3.75 13.7656C3.75 13.3514 4.08579 13.0156 4.5 13.0156H20.5C20.9142 13.0156 21.25 13.3514 21.25 13.7656C21.25 14.1798 20.9142 14.5156 20.5 14.5156H4.5C4.08579 14.5156 3.75 14.1798 3.75 13.7656Z"
          fill="#D9D9D9"/>
</svg>
