<svg width="24" height="24" viewBox="0 0 24 24" fill="none" xmlns="http://www.w3.org/2000/svg">
    <path fill-rule="evenodd" clip-rule="evenodd"
          d="M11.5253 3.46429C7.21095 3.46429 3.71436 6.96089 3.71436 11.2752C3.71436 15.5896 7.21095 19.0862 11.5253 19.0862C15.8388 19.0862 19.3363 15.5896 19.3363 11.2752C19.3363 6.96094 15.8388 3.46429 11.5253 3.46429ZM2.21436 11.2752C2.21436 6.13246 6.38252 1.96429 11.5253 1.96429C16.6671 1.96429 20.8363 6.13241 20.8363 11.2752C20.8363 16.4181 16.6671 20.5862 11.5253 20.5862C6.38252 20.5862 2.21436 16.418 2.21436 11.2752Z"
          fill="#7D7D7D"/>
    <path fill-rule="evenodd" clip-rule="evenodd"
          d="M20.1488 19.2376C19.7836 19.2376 19.4873 19.5346 19.4873 19.8981C19.4873 20.2636 19.7836 20.5595 20.1488 20.5595C20.5133 20.5595 20.8093 20.2642 20.8093 19.8981C20.8093 19.5339 20.5133 19.2376 20.1488 19.2376ZM17.9873 19.8981C17.9873 18.7055 18.9558 17.7376 20.1488 17.7376C21.3424 17.7376 22.3093 18.7061 22.3093 19.8981C22.3093 21.092 21.3424 22.0595 20.1488 22.0595C18.9558 22.0595 17.9873 21.0927 17.9873 19.8981Z"
          fill="#7D7D7D"/>
</svg>
