<svg width="20" height="20" viewBox="0 0 20 20" fill="none" xmlns="http://www.w3.org/2000/svg">
    <path fill-rule="evenodd" clip-rule="evenodd"
          d="M5.41682 17.9384C4.90358 17.6421 4.64695 17.494 4.47188 17.3011C4.16317 16.9611 4.00845 16.5087 4.04425 16.0509C4.06455 15.7912 4.17668 15.5169 4.40094 14.9684L4.56815 14.5593C4.68148 14.2821 4.63384 13.9677 4.46655 13.7192C4.29756 13.4683 4.1452 13.2053 4.01102 12.9317C3.87926 12.663 3.63092 12.4648 3.33443 12.4244L2.89772 12.3648C2.31052 12.2847 2.01691 12.2447 1.78189 12.1325C1.36746 11.9345 1.05308 11.5744 0.912958 11.137C0.833496 10.889 0.833496 10.5926 0.833496 10C0.833496 9.40736 0.833496 9.11103 0.912958 8.863C1.05308 8.42563 1.36746 8.06546 1.78189 7.86754C2.01691 7.75529 2.31052 7.71525 2.89773 7.63518L3.33443 7.57563C3.63093 7.5352 3.87927 7.337 4.01103 7.06832C4.1452 6.79474 4.29757 6.53169 4.46655 6.28077C4.63385 6.03234 4.68149 5.71789 4.56816 5.44066L4.40096 5.03165C4.1767 4.48308 4.06457 4.20879 4.04427 3.94913C4.00846 3.49126 4.16318 3.03891 4.4719 2.69888C4.64697 2.50605 4.9036 2.35789 5.41685 2.06156C5.93009 1.76524 6.18671 1.61708 6.44124 1.56188C6.89007 1.46455 7.35918 1.55673 7.7378 1.81667C7.95252 1.96408 8.13399 2.19833 8.49694 2.66683L8.76777 3.01642C8.95086 3.25275 9.24628 3.36879 9.54455 3.34866C9.69511 3.3385 9.84703 3.33334 10.0002 3.33334C10.1532 3.33334 10.3051 3.3385 10.4556 3.34865C10.7539 3.36877 11.0493 3.25273 11.2324 3.01641L11.5034 2.66657C11.8663 2.19807 12.0478 1.96382 12.2625 1.81641C12.6411 1.55647 13.1103 1.46428 13.5591 1.56162C13.8136 1.61682 14.0702 1.76498 14.5835 2.06131C15.0967 2.35763 15.3534 2.50579 15.5284 2.69862C15.8371 3.03865 15.9919 3.491 15.9561 3.94887C15.9358 4.20852 15.8236 4.48282 15.5994 5.03136L15.4321 5.44056C15.3188 5.7178 15.3664 6.03226 15.5337 6.28068C15.7027 6.53163 15.8551 6.79471 15.9893 7.06832C16.1211 7.337 16.3694 7.5352 16.6659 7.57563L17.1026 7.63518C17.6898 7.71526 17.9834 7.75529 18.2184 7.86754C18.6329 8.06547 18.9472 8.42563 19.0874 8.863C19.1668 9.11103 19.1668 9.40736 19.1668 10C19.1668 10.5926 19.1668 10.889 19.0874 11.137C18.9472 11.5744 18.6329 11.9345 18.2184 12.1325C17.9834 12.2447 17.6898 12.2847 17.1026 12.3648L16.6659 12.4244C16.3694 12.4648 16.1211 12.663 15.9893 12.9317C15.8551 13.2053 15.7027 13.4684 15.5337 13.7193C15.3664 13.9677 15.3188 14.2822 15.4321 14.5594L15.5994 14.9686C15.8236 15.5172 15.9358 15.7915 15.9561 16.0511C15.9919 16.509 15.8372 16.9614 15.5284 17.3014C15.3534 17.4942 15.0967 17.6424 14.5835 17.9387C14.0703 18.235 13.8136 18.3832 13.5591 18.4384C13.1103 18.5357 12.6412 18.4435 12.2625 18.1836C12.0478 18.0362 11.8663 17.8019 11.5034 17.3334L11.2324 16.9836C11.0493 16.7473 10.7539 16.6312 10.4556 16.6514C10.3051 16.6615 10.1532 16.6667 10.0002 16.6667C9.84703 16.6667 9.6951 16.6615 9.54454 16.6513C9.24627 16.6312 8.95084 16.7473 8.76776 16.9836L8.49693 17.3332C8.13398 17.8017 7.9525 18.0359 7.73778 18.1833C7.35916 18.4433 6.89005 18.5355 6.44122 18.4381C6.18669 18.3829 5.93007 18.2348 5.41682 17.9384ZM10.0002 12.5C11.3809 12.5 12.5002 11.3807 12.5002 10C12.5002 8.61929 11.3809 7.5 10.0002 7.5C8.61945 7.5 7.50016 8.61929 7.50016 10C7.50016 11.3807 8.61945 12.5 10.0002 12.5Z"
          stroke="white" stroke-width="1.5" stroke-linecap="round" stroke-linejoin="round"/>
</svg>
